<svg width="32" height="32" viewBox="0 0 32 32" fill="none" xmlns="http://www.w3.org/2000/svg">
<circle cx="16" cy="16" r="16" fill="url(#paint0_linear_338_165)"/>
<path d="M21.8337 20.1663H23.5003C24.0003 20.1663 24.3337 19.833 24.3337 19.333V16.833C24.3337 16.083 23.7503 15.4163 23.0837 15.2497C21.5837 14.833 19.3337 14.333 19.3337 14.333C19.3337 14.333 18.2503 13.1663 17.5003 12.4163C17.0837 12.083 16.5837 11.833 16.0003 11.833H10.167C9.66699 11.833 9.25033 12.1663 9.00033 12.583L7.83366 14.9997C7.72331 15.3215 7.66699 15.6594 7.66699 15.9997V19.333C7.66699 19.833 8.00033 20.1663 8.50033 20.1663H10.167" stroke="white" stroke-width="1.33333" stroke-linecap="round" stroke-linejoin="round"/>
<path d="M11.8337 21.8333C12.7541 21.8333 13.5003 21.0871 13.5003 20.1667C13.5003 19.2462 12.7541 18.5 11.8337 18.5C10.9132 18.5 10.167 19.2462 10.167 20.1667C10.167 21.0871 10.9132 21.8333 11.8337 21.8333Z" stroke="white" stroke-width="1.33333" stroke-linecap="round" stroke-linejoin="round"/>
<path d="M13.5 20.167H18.5" stroke="white" stroke-width="1.33333" stroke-linecap="round" stroke-linejoin="round"/>
<path d="M20.1667 21.8333C21.0871 21.8333 21.8333 21.0871 21.8333 20.1667C21.8333 19.2462 21.0871 18.5 20.1667 18.5C19.2462 18.5 18.5 19.2462 18.5 20.1667C18.5 21.0871 19.2462 21.8333 20.1667 21.8333Z" stroke="white" stroke-width="1.33333" stroke-linecap="round" stroke-linejoin="round"/>
<defs>
<linearGradient id="paint0_linear_338_165" x1="1.94205e-07" y1="0.178692" x2="32" y2="31.8213" gradientUnits="userSpaceOnUse">
<stop stop-color="#2DD4BF"/>
<stop offset="1" stop-color="#3B82F6"/>
</linearGradient>
</defs>
</svg>
