<?xml version="1.0" standalone="no"?>
<!DOCTYPE svg PUBLIC "-//W3C//DTD SVG 20010904//EN"
 "http://www.w3.org/TR/2001/REC-SVG-20010904/DTD/svg10.dtd">
<svg version="1.0" xmlns="http://www.w3.org/2000/svg"
 width="300.000000pt" height="168.000000pt" viewBox="0 0 300.000000 168.000000"
 preserveAspectRatio="xMidYMid meet">

<g transform="translate(0.000000,168.000000) scale(0.100000,-0.100000)"
fill="#000000" stroke="none">
<path d="M2553 1655 c7 -14 15 -25 18 -25 3 0 19 -11 35 -25 16 -14 32 -25 35
-25 16 0 54 -45 80 -94 l28 -56 -47 -2 c-67 -2 -96 2 -103 14 -9 14 -66 0 -73
-18 -3 -8 -14 -14 -24 -14 -24 0 -45 -43 -30 -58 24 -24 -68 11 -104 39 -36
29 -39 29 -160 28 -105 0 -244 -13 -198 -18 12 -1 12 -4 -2 -12 -12 -7 -24 -6
-37 1 -33 17 -48 11 -22 -10 17 -14 19 -20 8 -20 -9 0 -22 6 -29 14 -15 14
-64 3 -54 -13 9 -13 -41 -30 -124 -41 -41 -6 -100 -15 -130 -20 -30 -5 -71
-12 -91 -15 -30 -4 -39 -12 -54 -45 -10 -22 -23 -40 -30 -40 -18 0 -58 -77
-43 -83 8 -3 -1 -18 -25 -42 -30 -29 -36 -40 -25 -46 7 -5 9 -9 4 -9 -6 0 -1
-8 10 -17 17 -16 45 -18 279 -18 l260 0 70 -28 c39 -15 75 -29 80 -30 6 -1 12
-4 15 -8 22 -24 84 -49 121 -49 62 0 112 -16 138 -43 25 -28 21 -43 -20 -75
-25 -21 -31 -22 -49 -9 -11 7 -17 16 -14 20 3 3 -20 -1 -53 -9 -102 -25 -178
-48 -183 -55 -3 -4 -47 -9 -99 -10 -90 -3 -94 -2 -107 21 -14 24 -14 24 -9 2
6 -21 5 -22 -22 -11 -15 6 -38 16 -50 22 -25 11 -64 -9 -86 -44 -6 -11 -52
-40 -102 -64 -49 -24 -101 -54 -115 -68 -17 -16 -32 -22 -44 -17 -17 6 -15 9
16 28 19 12 40 22 47 22 6 0 10 5 8 11 -1 6 7 16 18 22 11 7 53 34 93 62 55
37 72 54 70 70 -3 18 -10 20 -68 20 -36 -1 -103 -9 -149 -19 -81 -18 -97 -18
-231 -2 -14 2 -38 4 -55 5 -62 3 -2 18 78 20 45 1 125 6 177 11 52 5 132 10
178 10 81 0 84 1 110 32 15 17 40 54 56 82 l29 51 -32 -30 c-30 -28 -35 -29
-130 -30 -80 0 -103 -3 -118 -17 -25 -23 -37 -23 -28 0 5 13 3 14 -6 5 -6 -6
-17 -9 -25 -6 -8 3 -16 -5 -20 -21 -3 -15 -14 -31 -24 -36 -9 -5 -82 -12 -160
-16 -130 -6 -143 -5 -137 10 8 20 -2 20 -27 1 -10 -8 -23 -12 -28 -9 -5 3 -15
1 -22 -5 -8 -6 -27 -8 -46 -4 -31 6 -32 7 -14 20 10 7 57 32 106 55 48 23 86
44 83 46 -2 2 -61 -24 -131 -58 -69 -33 -132 -59 -139 -57 -6 3 -12 -1 -12 -9
0 -13 17 -19 40 -15 5 1 6 -3 2 -9 -3 -5 -27 -10 -53 -10 -26 -1 -64 -7 -85
-14 -25 -9 -37 -10 -34 -3 2 6 16 15 33 20 16 5 36 11 44 14 8 4 22 5 30 4 13
-2 13 -1 0 8 -8 6 -22 9 -30 6 -38 -11 -211 -6 -227 7 -9 7 -21 7 -40 0 -16
-6 -59 -9 -98 -9 -65 2 -69 4 -76 27 -4 14 -7 18 -8 9 -1 -9 -8 -22 -16 -29
-13 -11 -14 -10 -9 3 3 8 0 25 -6 37 -10 18 -19 21 -51 18 -37 -3 -39 -2 -39
24 0 20 -4 26 -15 22 -11 -5 -15 1 -15 24 0 17 -4 33 -9 36 -16 10 -41 -5 -41
-25 0 -35 -29 -34 -60 2 -17 18 -30 39 -30 46 0 7 -4 13 -9 13 -17 0 -23 -21
-10 -36 6 -8 9 -18 5 -22 -4 -4 -14 2 -22 12 -12 17 -14 -44 -14 -467 l0 -487
1500 0 1500 0 0 258 0 258 -117 -3 c-65 -2 -153 -8 -197 -13 -43 -6 -81 -8
-85 -5 -4 2 -55 5 -114 6 l-107 1 0 71 0 70 281 -7 c155 -3 286 -9 290 -12 5
-3 18 -2 29 1 20 6 20 16 20 531 l0 524 -229 0 -229 0 11 -25z m-1166 -621
c-3 -3 -12 -4 -19 -1 -8 3 -5 6 6 6 11 1 17 -2 13 -5z m63 -24 c12 -8 10 -9
-10 -9 -14 1 -38 5 -55 9 -29 7 -29 8 10 9 22 0 47 -4 55 -9z m747 -66 c-3 -3
-12 -4 -19 -1 -8 3 -5 6 6 6 11 1 17 -2 13 -5z m-1937 -174 c20 -6 21 -8 5 -8
-11 0 -31 4 -45 8 -20 6 -21 8 -5 8 11 0 31 -4 45 -8z m733 -14 c4 -9 -2 -11
-18 -8 -13 2 -54 -3 -90 -13 -81 -20 -95 -14 -26 11 27 9 48 20 46 23 -2 3 16
4 40 3 24 -2 46 -10 48 -16z m67 7 c-8 -3 -21 -10 -28 -16 -9 -7 -11 -6 -6 7
3 9 16 16 28 15 14 0 16 -2 6 -6z m1264 -58 c-14 -11 -15 -14 -4 -15 10 0 11
-3 4 -8 -6 -4 -16 -16 -22 -27 -11 -18 -11 -16 -6 10 8 34 22 55 37 55 6 0 2
-7 -9 -15z m-1685 -13 c-14 -9 -45 -39 -69 -67 -23 -27 -46 -54 -50 -59 -5 -4
-16 -3 -27 3 -10 6 -12 11 -5 11 6 0 12 7 12 15 0 27 115 115 149 115 11 0 7
-6 -10 -18z m781 -37 c-7 -8 -17 -12 -22 -9 -6 4 -5 10 3 15 22 14 33 10 19
-6z m334 -26 c19 -11 42 -32 51 -47 l16 -27 -25 28 c-16 17 -31 25 -39 21 -6
-4 -8 -3 -4 1 4 5 -7 17 -25 27 -18 9 -28 17 -21 18 6 0 27 -9 47 -21z m-487
-56 c-14 -14 -19 -15 -29 -4 -11 10 -10 11 3 6 10 -4 20 -2 24 4 3 6 9 11 13
11 3 0 -1 -8 -11 -17z m313 -3 c-14 -11 -32 -19 -40 -19 -8 0 1 8 20 19 45 25
51 25 20 0z m-370 -15 c-7 -8 -17 -15 -22 -15 -6 0 -5 7 2 15 7 8 17 15 22 15
6 0 5 -7 -2 -15z m1110 -4 c0 -5 -7 -12 -16 -15 -14 -5 -15 -4 -4 9 14 17 20
19 20 6z m-220 -42 c-47 -15 -89 -28 -95 -28 -17 -1 78 43 110 50 71 15 64 5
-15 -22z m258 -39 c-7 -11 -16 -20 -20 -20 -5 0 -3 9 4 20 7 11 16 20 20 20 5
0 3 -9 -4 -20z m-551 -16 c-3 -3 -12 -4 -19 -1 -8 3 -5 6 6 6 11 1 17 -2 13
-5z m-130 -181 c0 -14 -11 -16 -44 -7 -34 9 -28 21 10 20 20 -1 34 -6 34 -13z"/>
<path d="M1898 953 c6 -2 18 -2 25 0 6 3 1 5 -13 5 -14 0 -19 -2 -12 -5z"/>
<path d="M1998 921 c41 -20 65 -38 71 -54 7 -17 20 -26 45 -31 40 -8 92 2 79
15 -12 12 -73 14 -98 4 l-20 -8 20 16 c19 15 17 17 -46 45 -88 40 -130 50 -51
13z"/>
<path d="M1771 895 c-1 -5 8 -32 19 -60 12 -27 18 -37 15 -21 -7 34 -33 96
-34 81z"/>
<path d="M1987 889 c7 -7 15 -10 18 -7 3 3 -2 9 -12 12 -14 6 -15 5 -6 -5z"/>
<path d="M2040 869 c0 -5 5 -7 10 -4 6 3 10 8 10 11 0 2 -4 4 -10 4 -5 0 -10
-5 -10 -11z"/>
<path d="M1861 856 c-8 -10 -9 -26 -3 -54 10 -43 4 -52 -39 -52 -21 0 -26 16
-6 23 7 3 5 6 -5 6 -10 1 -18 -5 -18 -11 0 -10 -2 -10 -9 0 -6 11 -11 10 -25
-3 -9 -9 -16 -20 -16 -25 0 -13 29 -20 36 -9 3 6 25 10 48 8 72 -3 78 -1 71
22 -8 26 8 39 48 39 16 0 37 5 48 10 23 13 26 35 3 26 -11 -4 -15 -2 -11 8 10
25 -102 37 -122 12z"/>
<path d="M1710 790 c14 -4 32 -8 40 -9 13 -1 13 0 0 9 -8 5 -26 9 -40 9 l-25
-1 25 -8z"/>
</g>
</svg>
